<svg xmlns="http://www.w3.org/2000/svg" xmlns:xlink="http://www.w3.org/1999/xlink" width="760" height="230" viewBox="0 0 760 230"><rect x="0" y="0" width="760" height="230" rx="10" fill="#191724" stroke="#2a2837" stroke-width="1"></rect><path d="M10 0 H750 A10 10 0 0 1 760 10 V26 H0 V10 A10 10 0 0 1 10 0 Z" fill="#141220"></path><line x1="0" y1="26" x2="760" y2="26" stroke="#2a2837" stroke-width="1"></line><circle cx="16" cy="14" r="4.5" fill="#eb6f92"></circle><circle cx="30" cy="14" r="4.5" fill="#f6c177"></circle><circle cx="44" cy="14" r="4.5" fill="#31748f"></circle><text x="380" y="18" font-family="JetBrainsMono, ui-monospace, SFMono-Regular, Menlo, Consolas, monospace" font-size="11" fill="#6e6a86" text-anchor="middle">pinned</text><g opacity="0"><animate attributeName="opacity" from="0" to="1" begin="0.15s" dur="0.45s" fill="freeze"></animate><a href="https://github.com/Dylan2388/whitebox-deeplearning" target="_blank"><rect x="20" y="42" width="356" height="84" rx="9" fill="#141220" stroke="#2a2837" stroke-width="1"></rect><text x="34" y="66" font-family="JetBrainsMono, ui-monospace, SFMono-Regular, Menlo, Consolas, monospace" font-size="14" fill="#c4a7e7" font-weight="600">whitebox-deeplearning</text><text x="34" y="86" font-family="-apple-system, BlinkMacSystemFont, Segoe UI, Noto Sans, Helvetica, Arial, sans-serif" font-size="11.5" fill="#908caa">no description</text><circle cx="39" cy="104" r="5" fill="#9ccfd8"></circle><text x="50" y="108" font-family="-apple-system, BlinkMacSystemFont, Segoe UI, Noto Sans, Helvetica, Arial, sans-serif" font-size="11" fill="#908caa">Python</text><path d="M4 0 5 2.6 7.8 2.9 5.7 4.8 6.3 7.5 4 6.1 1.7 7.5 2.3 4.8 0.2 2.9 3 2.6 Z" transform="translate(107.6 104)" fill="#f6c177"></path><text x="122.6" y="108" font-family="JetBrainsMono, ui-monospace, SFMono-Regular, Menlo, Consolas, monospace" font-size="11" fill="#908caa">★ 0</text></a></g><g opacity="0"><animate attributeName="opacity" from="0" to="1" begin="0.22999999999999998s" dur="0.45s" fill="freeze"></animate><a href="https://github.com/Dylan2388/math-solver-chatbot" target="_blank"><rect x="392" y="42" width="356" height="84" rx="9" fill="#141220" stroke="#2a2837" stroke-width="1"></rect><text x="406" y="66" font-family="JetBrainsMono, ui-monospace, SFMono-Regular, Menlo, Consolas, monospace" font-size="14" fill="#c4a7e7" font-weight="600">math-solver-chatbot</text><text x="406" y="86" font-family="-apple-system, BlinkMacSystemFont, Segoe UI, Noto Sans, Helvetica, Arial, sans-serif" font-size="11.5" fill="#908caa">no description</text><circle cx="411" cy="104" r="5" fill="#f6c177"></circle><text x="422" y="108" font-family="-apple-system, BlinkMacSystemFont, Segoe UI, Noto Sans, Helvetica, Arial, sans-serif" font-size="11" fill="#908caa">JavaScript</text><path d="M4 0 5 2.6 7.8 2.9 5.7 4.8 6.3 7.5 4 6.1 1.7 7.5 2.3 4.8 0.2 2.9 3 2.6 Z" transform="translate(506 104)" fill="#f6c177"></path><text x="521" y="108" font-family="JetBrainsMono, ui-monospace, SFMono-Regular, Menlo, Consolas, monospace" font-size="11" fill="#908caa">★ 0</text></a></g><g opacity="0"><animate attributeName="opacity" from="0" to="1" begin="0.31s" dur="0.45s" fill="freeze"></animate><a href="https://github.com/Dylan2388/big-data-course" target="_blank"><rect x="20" y="142" width="356" height="84" rx="9" fill="#141220" stroke="#2a2837" stroke-width="1"></rect><text x="34" y="166" font-family="JetBrainsMono, ui-monospace, SFMono-Regular, Menlo, Consolas, monospace" font-size="14" fill="#c4a7e7" font-weight="600">big-data-course</text><text x="34" y="186" font-family="-apple-system, BlinkMacSystemFont, Segoe UI, Noto Sans, Helvetica, Arial, sans-serif" font-size="11.5" fill="#908caa">no description</text><circle cx="39" cy="204" r="5" fill="#9ccfd8"></circle><text x="50" y="208" font-family="-apple-system, BlinkMacSystemFont, Segoe UI, Noto Sans, Helvetica, Arial, sans-serif" font-size="11" fill="#908caa">Python</text><path d="M4 0 5 2.6 7.8 2.9 5.7 4.8 6.3 7.5 4 6.1 1.7 7.5 2.3 4.8 0.2 2.9 3 2.6 Z" transform="translate(107.6 204)" fill="#f6c177"></path><text x="122.6" y="208" font-family="JetBrainsMono, ui-monospace, SFMono-Regular, Menlo, Consolas, monospace" font-size="11" fill="#908caa">★ 0</text><path d="M5 5v6m0-6C5 8 8 8 12 8m-7 3c0-3 3-3 7-3" transform="translate(160.39999999999998 204) scale(0.75)" fill="#908caa"></path><text x="175.39999999999998" y="208" font-family="JetBrainsMono, ui-monospace, SFMono-Regular, Menlo, Consolas, monospace" font-size="11" fill="#908caa">1</text></a></g><g opacity="0"><animate attributeName="opacity" from="0" to="1" begin="0.39s" dur="0.45s" fill="freeze"></animate><a href="https://github.com/Dylan2388/dotfiles" target="_blank"><rect x="392" y="142" width="356" height="84" rx="9" fill="#141220" stroke="#2a2837" stroke-width="1"></rect><text x="406" y="166" font-family="JetBrainsMono, ui-monospace, SFMono-Regular, Menlo, Consolas, monospace" font-size="14" fill="#c4a7e7" font-weight="600">dotfiles</text><text x="406" y="186" font-family="-apple-system, BlinkMacSystemFont, Segoe UI, Noto Sans, Helvetica, Arial, sans-serif" font-size="11.5" fill="#908caa">This is my personal dotfiles</text><circle cx="411" cy="204" r="5" fill="#9ccfd8"></circle><text x="422" y="208" font-family="-apple-system, BlinkMacSystemFont, Segoe UI, Noto Sans, Helvetica, Arial, sans-serif" font-size="11" fill="#908caa">Python</text><path d="M4 0 5 2.6 7.8 2.9 5.7 4.8 6.3 7.5 4 6.1 1.7 7.5 2.3 4.8 0.2 2.9 3 2.6 Z" transform="translate(479.6 204)" fill="#f6c177"></path><text x="494.6" y="208" font-family="JetBrainsMono, ui-monospace, SFMono-Regular, Menlo, Consolas, monospace" font-size="11" fill="#908caa">★ 0</text></a></g></svg>